<?xml version="1.0" encoding="UTF-8"?>
<svg width="1200" height="300" viewBox="0 0 1200 300" xmlns="http://www.w3.org/2000/svg">

  <defs>
    <linearGradient id="grad" x1="0%" y1="0%" x2="100%" y2="100%">
      <stop offset="0%" stop-color="#8A2BE2"/>
      <stop offset="50%" stop-color="#6C5CE7"/>
      <stop offset="100%" stop-color="#00C2FF"/>
    </linearGradient>
    <linearGradient id="grad2" x1="0%" y1="0%" x2="100%" y2="0%">
      <stop offset="0%" stop-color="#FF5ACD"/>
      <stop offset="100%" stop-color="#4DA3FF"/>
    </linearGradient>
    <filter id="softGlow" x="-20%" y="-20%" width="140%" height="140%">
      <feGaussianBlur stdDeviation="6" result="blur"/>
      <feMerge>
        <feMergeNode in="blur"/>
        <feMergeNode in="SourceGraphic"/>
      </feMerge>
    </filter>
  </defs>

<rect width="100%" height="100%" fill="none"/>
<g transform="translate(20,40) scale(0.45)">
  <path d="M100 520 L100 140 L170 140 L240 290 L310 140 L380 140 L380 520 L330 520 L330 260 L260 410 L220 410 L150 260 L150 520 Z"
        fill="url(#grad)"/>
  <path d="M520 210 A150 150 0 1 0 520 430 L440 430 L440 370 L520 370 
           A90 90 0 1 1 520 270 L455 270 L455 210 Z" fill="url(#grad2)"/>
</g>
<g transform="translate(320,120)">
  <text x="0" y="0" font-size="84" font-weight="900" font-family="system-ui, -apple-system, Segoe UI, Roboto, Helvetica, Arial" fill="url(#grad2)">
    MATY
  </text>
  <text x="340" y="0" font-size="84" font-weight="900" font-family="system-ui, -apple-system, Segoe UI, Roboto, Helvetica, Arial" fill="url(#grad)">
    MUSIC
  </text>
  <text x="0" y="56" font-size="28" font-weight="600" font-family="system-ui, -apple-system, Segoe UI, Roboto, Helvetica, Arial" fill="white" opacity="0.7">
    Official • PA5X MG
  </text>
</g>
</svg>
