<?xml version="1.0" encoding="UTF-8"?>
<svg width="1400" height="420" viewBox="0 0 1400 420" xmlns="http://www.w3.org/2000/svg">

  <defs>
    <linearGradient id="grad" x1="0%" y1="0%" x2="100%" y2="100%">
      <stop offset="0%" stop-color="#8A2BE2"/>
      <stop offset="50%" stop-color="#6C5CE7"/>
      <stop offset="100%" stop-color="#00C2FF"/>
    </linearGradient>
    <linearGradient id="grad2" x1="0%" y1="0%" x2="100%" y2="0%">
      <stop offset="0%" stop-color="#FF5ACD"/>
      <stop offset="100%" stop-color="#4DA3FF"/>
    </linearGradient>
    <filter id="softGlow" x="-20%" y="-20%" width="140%" height="140%">
      <feGaussianBlur stdDeviation="6" result="blur"/>
      <feMerge>
        <feMergeNode in="blur"/>
        <feMergeNode in="SourceGraphic"/>
      </feMerge>
    </filter>
  </defs>

<rect width="100%" height="100%" fill="none"/>
<g transform="translate(30,30) scale(0.6)">
  <path d="M100 520 L100 140 L170 140 L240 290 L310 140 L380 140 L380 520 L330 520 L330 260 L260 410 L220 410 L150 260 L150 520 Z"
        fill="url(#grad)" filter="url(#softGlow)"/>
  <path d="M520 210 A150 150 0 1 0 520 430 L440 430 L440 370 L520 370 
           A90 90 0 1 1 520 270 L455 270 L455 210 Z" fill="url(#grad2)" filter="url(#softGlow)"/>
  <g transform="translate(430, 300)">
    <rect x="0" y="0" width="150" height="60" rx="10" fill="white" opacity="0.95"/>
    <rect x="0" y="0" width="150" height="60" rx="10" fill="none" stroke="#111" stroke-opacity="0.1"/>
    <rect x="15" y="0" width="12" height="35" fill="#111"/>
    <rect x="45" y="0" width="12" height="35" fill="#111"/>
    <rect x="75" y="0" width="12" height="35" fill="#111"/>
    <rect x="105" y="0" width="12" height="35" fill="#111"/>
    <rect x="125" y="0" width="12" height="35" fill="#111"/>
  </g>
</g>
<g transform="translate(460,90)">
  <text x="0" y="0" font-size="72" font-weight="800" font-family="system-ui, -apple-system, Segoe UI, Roboto, Helvetica, Arial" fill="url(#grad)">
    MATY GURFINKEL
  </text>
  <text x="0" y="90" font-size="36" font-weight="600" font-family="system-ui, -apple-system, Segoe UI, Roboto, Helvetica, Arial" fill="white" opacity="0.9">
    PA5X <tspan fill="url(#grad2)" font-weight="800">MG</tspan>
  </text>
</g>
</svg>
